<?xml version="1.0" standalone="no"?>
<!DOCTYPE svg PUBLIC "-//W3C//DTD SVG 20010904//EN"
 "http://www.w3.org/TR/2001/REC-SVG-20010904/DTD/svg10.dtd">
<svg version="1.0" xmlns="http://www.w3.org/2000/svg"
 width="1020.000000pt" height="1020.000000pt" viewBox="0 0 1020.000000 1020.000000"
 preserveAspectRatio="xMidYMid meet">
<metadata>
Created by potrace 1.14, written by Peter Selinger 2001-2017
</metadata>
<g transform="translate(0.000000,1020.000000) scale(0.100000,-0.100000)"
fill="#000000" stroke="none">
<path d="M4487 9724 c-2 -3 -42 -7 -88 -10 -46 -4 -93 -7 -104 -8 -11 -2 -51
-6 -90 -10 -38 -4 -77 -10 -85 -13 -8 -3 -28 -6 -45 -8 -32 -3 -95 -14 -129
-22 -11 -2 -35 -6 -52 -7 -17 -2 -36 -6 -41 -9 -5 -3 -25 -9 -44 -12 -19 -3
-52 -11 -74 -17 -22 -5 -47 -12 -55 -13 -8 -2 -15 -4 -15 -5 0 -1 -9 -3 -20
-5 -32 -7 -228 -65 -250 -75 -11 -5 -47 -18 -81 -29 -74 -24 -234 -88 -329
-131 -85 -38 -278 -133 -285 -140 -6 -6 -86 -50 -117 -65 -13 -5 -23 -13 -23
-17 0 -5 -5 -8 -10 -8 -13 0 -144 -81 -148 -92 -2 -4 -8 -8 -13 -8 -5 0 -31
-16 -58 -35 -26 -19 -53 -35 -60 -35 -6 0 -11 -4 -11 -10 0 -5 -12 -16 -27
-24 -16 -8 -40 -25 -55 -38 -15 -13 -44 -34 -63 -48 -20 -14 -42 -30 -48 -36
-7 -5 -43 -37 -82 -69 -38 -32 -78 -65 -87 -74 -9 -9 -51 -47 -94 -86 -161
-146 -346 -346 -487 -529 -43 -56 -84 -108 -90 -116 -35 -44 -157 -230 -157
-239 0 -6 -3 -11 -8 -11 -4 0 -18 -20 -31 -45 -13 -25 -28 -45 -33 -45 -5 0
-7 -4 -3 -9 3 -5 -1 -15 -8 -23 -14 -15 -65 -106 -110 -198 -17 -36 -35 -68
-40 -71 -5 -3 -9 -10 -9 -15 -2 -25 -11 -44 -21 -44 -6 0 -7 -3 -4 -6 4 -4 0
-19 -8 -33 -15 -29 -49 -103 -51 -111 0 -3 -8 -23 -18 -45 -10 -22 -24 -58
-33 -80 -8 -22 -19 -49 -23 -60 -8 -21 -50 -142 -55 -160 -1 -5 -3 -14 -5 -20
-1 -5 -6 -16 -12 -22 -6 -7 -8 -13 -4 -13 3 0 -1 -17 -9 -37 -8 -21 -17 -49
-19 -63 -3 -14 -10 -41 -16 -60 -6 -19 -13 -42 -15 -50 -1 -8 -8 -33 -13 -55
-6 -22 -13 -51 -16 -65 -2 -14 -11 -56 -19 -95 -9 -38 -18 -86 -21 -105 -3
-19 -8 -46 -11 -60 -3 -14 -7 -47 -10 -75 -3 -27 -7 -57 -10 -65 -2 -8 -6 -42
-10 -75 -3 -33 -8 -80 -10 -105 -22 -216 -22 -643 0 -800 3 -19 8 -62 11 -95
10 -105 12 -120 14 -120 1 0 3 -16 5 -36 4 -33 1 -38 -25 -49 -17 -7 -30 -16
-30 -21 0 -5 -5 -9 -11 -9 -20 0 -199 -159 -199 -176 0 -3 -13 -22 -30 -42
-45 -57 -82 -148 -107 -262 -13 -62 -8 -241 9 -297 34 -112 150 -216 268 -240
17 -3 33 -9 35 -13 3 -5 -13 -28 -35 -52 -44 -46 -141 -187 -139 -202 0 -5 -4
-12 -9 -15 -13 -9 -51 -120 -54 -161 -4 -55 10 -105 36 -129 29 -27 86 -48
124 -46 34 2 144 25 157 33 6 4 17 8 25 9 8 1 62 20 119 42 104 40 121 42 121
16 0 -8 7 -31 16 -52 9 -21 20 -47 24 -58 5 -11 16 -38 26 -60 10 -22 18 -43
19 -47 0 -3 3 -10 8 -14 15 -15 6 -24 -33 -30 -22 -4 -43 -11 -46 -15 -3 -5
-9 -7 -14 -4 -11 7 -144 -54 -179 -81 -86 -67 -159 -183 -165 -261 -1 -12 -4
-24 -7 -27 -2 -3 -4 -36 -3 -75 4 -128 76 -234 202 -297 32 -15 59 -29 62 -29
5 -2 17 -6 75 -28 17 -7 33 -12 38 -13 4 -1 8 -2 10 -4 1 -1 9 -3 17 -5 30 -6
112 -36 143 -52 18 -10 37 -16 42 -14 6 1 7 -1 3 -4 -4 -4 2 -15 13 -24 17
-14 20 -32 24 -176 3 -88 5 -167 6 -175 2 -32 31 -127 52 -170 25 -51 94 -130
114 -130 7 0 13 -4 13 -9 0 -4 25 -17 56 -29 45 -17 75 -20 162 -18 59 2 118
6 132 9 14 4 34 9 45 11 11 3 41 11 66 19 45 14 47 14 65 -11 61 -81 184 -205
292 -293 82 -67 354 -225 404 -234 12 -3 24 -8 27 -13 3 -5 20 -13 36 -17 17
-5 32 -9 35 -10 3 -1 22 -9 44 -18 21 -9 44 -17 50 -17 6 0 24 -7 40 -15 16
-9 31 -13 34 -10 3 3 11 0 19 -6 7 -6 13 -8 13 -5 0 4 8 2 18 -3 11 -6 30 -12
43 -15 13 -3 33 -7 44 -10 35 -8 169 -37 190 -41 32 -6 97 -16 130 -20 17 -2
53 -7 80 -11 189 -26 571 -36 805 -20 69 4 145 9 170 11 25 2 45 4 45 5 0 1
18 3 40 5 100 9 202 21 255 32 19 3 38 6 42 5 3 -1 44 5 90 14 45 8 92 16 103
18 11 2 34 6 50 9 17 4 44 9 60 12 59 10 120 23 120 25 0 1 9 3 20 5 11 1 32
5 48 9 15 3 39 8 53 11 60 13 375 95 444 116 82 25 96 28 123 31 9 1 17 5 17
9 0 3 27 12 60 19 33 7 60 17 60 23 0 6 2 8 6 5 6 -7 419 131 449 150 20 13
35 10 35 -7 0 -10 3 -21 7 -25 4 -3 8 -13 9 -21 3 -21 56 -128 71 -143 7 -7
13 -17 13 -21 0 -4 28 -35 61 -69 82 -82 202 -150 294 -167 11 -2 20 -4 20 -5
0 -11 206 -17 224 -6 6 4 26 9 44 11 75 7 267 121 315 186 7 10 18 24 25 31
19 19 78 118 71 118 -4 0 -2 6 3 13 9 10 31 69 39 102 12 49 15 66 14 110 0
81 -6 118 -28 167 -22 48 -106 138 -129 138 -7 0 -13 5 -13 10 0 6 -3 10 -7 9
-17 -2 -53 14 -53 24 0 6 3 8 6 4 3 -3 21 3 39 13 18 10 77 41 131 70 113 59
138 73 324 182 324 189 710 448 907 607 17 14 48 40 68 56 21 17 46 38 56 47
11 10 19 16 19 13 0 -2 10 6 23 18 12 12 49 45 82 72 62 53 346 332 405 400
30 34 144 173 183 225 121 157 279 450 332 615 9 28 19 57 22 65 3 8 7 20 8
25 2 6 7 28 13 50 6 22 13 51 16 65 3 14 7 36 10 50 8 34 17 98 22 145 5 53 5
253 0 285 -3 14 -7 45 -10 68 -8 55 -43 196 -60 237 -15 36 -11 53 21 80 12
11 23 26 23 32 0 6 4 13 8 15 4 2 20 19 34 38 70 94 125 239 132 352 1 19 6
40 10 46 4 7 4 12 -1 12 -4 0 -9 18 -10 39 -3 81 -31 175 -64 223 -11 14 -19
29 -19 32 0 4 -11 19 -25 34 -22 23 -32 42 -22 42 30 0 126 26 152 41 156 92
37 387 -239 592 -28 21 -59 45 -69 53 -9 7 -23 14 -30 14 -26 0 -35 21 -26 58
22 101 6 238 -45 377 -42 113 -60 155 -68 155 -5 0 -7 4 -5 8 4 16 -91 156
-135 199 -67 66 -112 103 -125 103 -7 0 -13 3 -13 8 0 4 -17 15 -38 24 -101
45 -108 48 -217 74 -45 11 -352 9 -413 -3 -55 -11 -82 0 -82 31 0 19 -42 120
-53 127 -5 3 -9 10 -9 15 1 16 -29 73 -44 85 -8 6 -14 18 -14 25 0 8 -4 14
-10 14 -5 0 -10 5 -10 10 0 6 -27 50 -60 98 -33 48 -74 107 -91 132 -17 25
-38 51 -47 58 -9 6 -12 12 -8 12 4 0 1 6 -6 13 -7 8 -24 29 -38 47 -14 18 -32
41 -40 50 -8 10 -33 39 -55 66 -72 87 -128 147 -255 274 -162 162 -202 197
-375 335 -55 44 -109 88 -119 98 -11 9 -26 17 -33 17 -7 0 -13 4 -13 8 0 4
-15 16 -32 27 -18 10 -35 21 -38 25 -10 13 -99 70 -109 70 -6 0 -11 5 -11 10
0 6 -7 10 -15 10 -8 0 -15 5 -15 10 0 6 -5 10 -11 10 -6 0 -29 13 -52 28 -23
16 -62 39 -87 53 -25 13 -53 30 -62 38 -10 8 -18 10 -18 5 0 -5 -4 -4 -8 1 -4
6 -47 31 -97 55 -49 25 -92 47 -95 50 -3 3 -9 6 -15 7 -5 1 -49 20 -97 42 -48
23 -90 41 -93 41 -3 0 -24 8 -48 19 -23 10 -69 29 -102 41 -33 12 -69 26 -80
32 -12 5 -27 10 -35 12 -22 3 -62 16 -85 26 -26 11 -206 63 -225 65 -9 0 -20
4 -25 7 -6 3 -28 9 -50 13 -22 4 -47 9 -55 12 -19 8 -27 9 -71 17 -20 3 -42 8
-50 10 -13 5 -67 14 -119 21 -14 2 -41 7 -60 10 -19 4 -44 9 -55 11 -33 6
-117 15 -170 19 -27 2 -50 4 -50 5 0 1 -22 3 -50 4 -27 1 -54 4 -60 7 -11 7
-572 9 -578 3z"/>
</g>
</svg>
